<?xml version="1.0" encoding="utf-8"?>
<!-- Generator: Adobe Illustrator 18.1.0, SVG Export Plug-In . SVG Version: 6.00 Build 0)  -->
<svg version="1.1" xmlns="http://www.w3.org/2000/svg" xmlns:xlink="http://www.w3.org/1999/xlink" x="0px" y="0px"
	 viewBox="0 0 3710 3710" enable-background="new 0 0 3710 3710" xml:space="preserve">
<g id="Background">
</g>
<g id="Illustration">
	<g>
		
			<linearGradient id="SVGID_1_" gradientUnits="userSpaceOnUse" x1="3564.519" y1="3417.5247" x2="1532.1366" y2="1223.8418" gradientTransform="matrix(0.9917 0.1289 -0.1289 0.9917 77.5035 -97.0325)">
			<stop  offset="0" style="stop-color:#DAE3FE"/>
			<stop  offset="1" style="stop-color:#E9EFFD"/>
		</linearGradient>
		<path fill="url(#SVGID_1_)" d="M3042.9,2467.4c-359.4,608.5-1132.4,871.5-1696.4,750.2c-154-33.1-454.4-180.5-668.9-443.6
			C265.7,2268.9,458.7,1350,979.3,861.8c67-62.9,529.1-482.4,1152.7-394.9c456.6,64,744,364,778.8,401.3
			c44,47.1,140.2,157.8,218.3,323.7C3312.6,1581.9,3267.5,2087.2,3042.9,2467.4z"/>
		<g>
			<path fill="#91B3FA" d="M580.9,1118.7c179.8,138.4,1193.6,986.5,568.6,2080.7c0,0-811.1-386.6-599.3-2068
				C552,1116.8,569.2,1109.7,580.9,1118.7z"/>
			<path fill="#BDD0FB" d="M642.7,1338.3c0,0,53.8,94.5,128.8,239.4c9.3,18.1,19,37,29.1,56.6c9.9,19.6,20.1,39.9,30.7,60.8
				c10.4,20.9,21.2,42.4,31.9,64.4c5.4,11,10.9,22.1,16.4,33.4c5.4,11.3,10.9,22.7,16.4,34.1c22.2,45.9,44.4,93.6,66.8,142.3
				c11,24.4,22.1,49,33.3,73.7c10.8,24.8,22,49.6,32.7,74.6c10.7,25,21.5,49.9,31.8,75c5.2,12.5,10.4,25,15.5,37.4
				c5.1,12.5,10,25,15.1,37.4c5,12.4,9.9,24.8,14.8,37.1c4.8,12.4,9.5,24.7,14.2,36.9c9.6,24.4,18.5,48.8,27.3,72.7
				c17.6,47.9,33.6,94.5,48.1,139c14.4,44.5,27.3,86.8,38.2,126.2c5.8,19.6,10.5,38.6,15.1,56.6c2.3,9,4.6,17.8,6.7,26.4
				c2.1,8.6,3.9,17,5.7,25.1c3.6,16.2,7.3,31.3,10,45.4c2.7,14.1,5.2,27.1,7.4,38.8c1.1,5.9,2.1,11.4,3.1,16.6
				c0.8,5.3,1.5,10.2,2.2,14.8c1.4,9.2,2.6,17,3.5,23.3c1.9,12.7,2.9,19.4,2.9,19.4c0.5,3.6-1.9,7-5.5,7.5c-3.6,0.5-7-1.9-7.5-5.5
				l0,0l0-0.3c0,0-1-6.7-2.8-19.2c-0.9-6.3-2.1-14-3.4-23.1c-0.7-4.5-1.4-9.4-2.1-14.7c-1-5.2-2-10.7-3-16.5
				c-2.2-11.6-4.6-24.5-7.2-38.6c-2.7-14-6.3-29.1-9.8-45.2c-1.8-8.1-3.5-16.4-5.6-24.9c-2.1-8.5-4.3-17.3-6.6-26.2
				c-4.5-18-9.1-36.9-14.8-56.4c-10.7-39.2-23.3-81.5-37.5-125.9c-14.2-44.4-30-91-47.4-138.8c-8.7-23.9-17.4-48.3-26.9-72.7
				c-4.7-12.2-9.3-24.6-14-36.9c-4.9-12.3-9.7-24.7-14.7-37.1c-4.9-12.4-9.8-24.9-14.9-37.4c-5.1-12.5-10.2-24.9-15.3-37.5
				c-10.1-25.1-20.9-50-31.4-75c-10.5-25-21.6-49.8-32.3-74.7c-11-24.7-22-49.3-32.9-73.7c-22.1-48.7-44.2-96.5-66.1-142.4
				c-5.5-11.5-10.9-22.9-16.3-34.2c-5.5-11.3-10.9-22.4-16.2-33.4c-10.6-22.1-21.3-43.6-31.6-64.5c-10.4-20.9-20.6-41.2-30.4-60.9
				c-10-19.6-19.6-38.5-28.8-56.6c-18.6-36.3-35.8-69.4-51.3-98.7c-15.4-29.3-29.1-54.7-40.4-75.6c-22.6-41.8-36-65.4-36-65.4
				c-0.8-1.3-0.3-3.1,1.1-3.8C640.2,1336.5,641.9,1337,642.7,1338.3z"/>
		</g>
		<g>
			<path fill="#BDD0FB" d="M1819.1,1395.4c99.8,162.4,642,1131.4-175.8,1803.6c0,0-521.2-546,147.9-1802.8
				C1796.9,1385.2,1812.5,1384.8,1819.1,1395.4z"/>
			<linearGradient id="SVGID_2_" gradientUnits="userSpaceOnUse" x1="1796.7813" y1="2315.6782" x2="1877.7765" y2="2315.6782">
				<stop  offset="0" style="stop-color:#DAE3FE"/>
				<stop  offset="1" style="stop-color:#E9EFFD"/>
			</linearGradient>
			<path fill="url(#SVGID_2_)" d="M1802.3,1586.2c0,0,14,90.3,29.7,226.5c3.9,34,7.9,70.9,11.9,110c3.9,39.1,7.9,80.3,11.4,123
				c3.7,42.7,6.9,86.8,10,131.7c1.4,22.4,2.7,45.1,4.1,67.8c1.1,22.7,2.5,45.5,3.4,68.4c0.9,22.8,2,45.7,2.6,68.4
				c0.3,11.4,0.7,22.7,1,34c0.2,11.3,0.4,22.6,0.7,33.9c0.2,11.2,0.4,22.4,0.6,33.6c0,11.1,0.1,22.2,0.1,33.3
				c0.2,22.1-0.1,43.8-0.3,65.3c-0.5,42.9-1.8,84.3-3.8,123.6c-2,39.3-4.5,76.4-7.7,110.5c-1.3,17.1-3.3,33.5-5.1,49
				c-0.9,7.8-1.7,15.4-2.6,22.7c-0.9,7.4-2,14.5-3,21.4c-2,13.8-3.7,26.8-5.7,38.7c-2.1,11.9-4,22.8-5.8,32.7
				c-0.9,4.9-1.7,9.6-2.5,14c-0.9,4.4-1.8,8.5-2.7,12.3c-1.7,7.6-3.1,14.1-4.2,19.4c-2.3,10.5-3.5,16.1-3.5,16.1
				c-0.8,3.6-4.3,5.8-7.9,5.1c-3.6-0.8-5.8-4.3-5.1-7.9l0,0l0.1-0.3c0,0,1.2-5.5,3.5-15.9c1.2-5.2,2.6-11.6,4.3-19.1
				c0.8-3.8,1.7-7.8,2.7-12.1c0.8-4.4,1.7-9,2.6-13.9c1.8-9.8,3.8-20.6,5.9-32.4c2.1-11.8,3.8-24.7,5.9-38.4
				c1-6.9,2.1-13.9,3.1-21.2c0.9-7.3,1.8-14.8,2.7-22.6c1.8-15.4,3.9-31.7,5.3-48.7c3.4-34,6.1-70.9,8.3-110
				c2.1-39.1,3.7-80.4,4.4-123.1c0.3-21.4,0.8-43.1,0.6-65.1c0-11,0-22.1,0-33.2c-0.1-11.1-0.3-22.3-0.4-33.5
				c-0.2-11.2-0.3-22.5-0.5-33.8c-0.3-11.3-0.6-22.6-0.8-34c-0.4-22.7-1.4-45.5-2.2-68.3c-0.8-22.8-2-45.6-3-68.3
				c-1.3-22.7-2.5-45.3-3.8-67.7c-2.8-44.8-5.8-88.9-9.3-131.6c-3.3-42.7-7.1-83.8-10.8-122.9c-3.7-39-7.6-75.9-11.3-110
				c-14.9-136.1-28.5-226.4-28.5-226.4c-0.2-1.5,0.8-3,2.4-3.2C1800.7,1583.6,1802.1,1584.7,1802.3,1586.2z"/>
		</g>
		<g>
			<linearGradient id="SVGID_3_" gradientUnits="userSpaceOnUse" x1="3807.7263" y1="2192.8047" x2="3145.4915" y2="2269.8086">
				<stop  offset="0" style="stop-color:#4F52FF"/>
				<stop  offset="1" style="stop-color:#4042E2"/>
			</linearGradient>
			<path fill="url(#SVGID_3_)" d="M3255.2,3242.5h-551.4V1371.8c0-22.3,18.1-40.4,40.4-40.4h470.6c22.3,0,40.4,18.1,40.4,40.4
				V3242.5z"/>
			<linearGradient id="SVGID_4_" gradientUnits="userSpaceOnUse" x1="3356.4851" y1="2184.2002" x2="4450.7275" y2="1957.0934">
				<stop  offset="0" style="stop-color:#4F52FF"/>
				<stop  offset="1" style="stop-color:#4042E2"/>
			</linearGradient>
			<path fill="url(#SVGID_4_)" d="M3119.3,3242.5h-551.4V1371.8c0-22.3,18.1-40.4,40.4-40.4h470.6c22.3,0,40.4,18.1,40.4,40.4
				V3242.5z"/>
			<g>
				<path fill="#91B3FA" d="M2607.4,1608.9c-2.8,0-5.1-2.3-5.1-5.1v-117.5c0-62.2,35.2-112.9,78.4-112.9H2802c2.8,0,5.1,2.3,5.1,5.1
					s-2.3,5.1-5.1,5.1h-121.3c-37.6,0-68.3,46.1-68.3,102.7v117.5C2612.5,1606.6,2610.2,1608.9,2607.4,1608.9z"/>
				<path fill="#91B3FA" d="M2607.4,1733.4c-2.8,0-5.1-2.3-5.1-5.1v-47.9c0-2.8,2.3-5.1,5.1-5.1s5.1,2.3,5.1,5.1v47.9
					C2612.5,1731.2,2610.2,1733.4,2607.4,1733.4z"/>
			</g>
		</g>
		<g>
			<path fill="#BDD0FB" d="M2436.6,3235.4c0,0,30.8-95.5,148.3-143.5c109-44.5,372.9-140.9,454.1-230.9c3.6-4,10.1,1.4,8.4,7.1
				c-17.6,60.6-72.3,206.4-211.9,303.4C2655.6,3296.5,2436.6,3235.4,2436.6,3235.4z"/>
			<path opacity="0.5" fill="#FFFFFF" d="M2974.8,2951c0,0-0.8,2.2-2.7,6.2c-1.9,3.9-4.7,9.8-8.9,16.8c-4.1,7.1-9.6,15.4-16.4,24.6
				c-1.6,2.3-3.5,4.7-5.4,7c-1.9,2.4-3.9,4.8-5.9,7.3c-4.1,4.9-8.8,9.8-13.5,15.1c-5,5-10.2,10.2-15.7,15.4
				c-5.8,5-11.6,10.3-17.8,15.4c-6.4,4.9-12.8,10.2-19.8,15.1c-3.5,2.4-7.1,4.8-10.7,7.2c-3.6,2.4-7.1,5-11,7.2
				c-3.8,2.2-7.6,4.5-11.5,6.8c-3.9,2.2-7.7,4.7-11.8,6.7c-8.1,4-16.3,8.3-24.7,12.3c-8.5,3.6-17.1,7.3-25.7,11
				c-8.8,3.4-17.4,6.6-26.1,9.8c-17.5,6.4-35.1,12.7-52.6,18.4c-17.4,5.8-34.7,11.2-51.3,16.3c-16.7,4.9-32.9,9.7-48.3,14.2
				c-15.3,4.5-29.9,8.6-43.1,12.7c-13.3,4.1-25.4,8-35.9,11.8c-5.3,1.9-10.1,4-14.6,5.8c-4.4,1.9-8.4,3.9-12.1,5.6
				c-7.1,3.8-12.7,6.7-16.2,9.2c-3.6,2.4-5.5,3.6-5.5,3.6l-0.1,0.1c-0.8,0.5-1.8,0.3-2.3-0.5c-0.5-0.7-0.3-1.7,0.4-2.3
				c0,0,1.9-1.4,5.4-4.1c3.4-2.8,8.8-6.4,15.9-10.7c3.6-1.9,7.6-4.2,12-6.4c4.5-2.1,9.3-4.5,14.6-6.7c10.5-4.5,22.5-9.4,35.7-13.9
				c13.2-4.7,27.6-9.5,42.8-14.4c15.2-4.9,31.2-10.1,47.8-15.5c16.6-5.3,33.6-11,50.9-16.9c17.3-6,34.7-12.1,52.1-18.5
				c8.7-3.3,17.5-6.5,26-9.8c8.4-3.5,16.9-7,25.2-10.4c8.2-3.8,16.2-7.8,24.2-11.6c7.9-4,15.4-8.5,23-12.6c3.8-2,7.3-4.4,10.9-6.7
				c3.6-2.3,7.1-4.5,10.6-6.7c3.6-2.1,6.7-4.7,10.1-7c3.3-2.3,6.6-4.7,9.8-6.9c6.3-4.7,12.2-9.7,18-14.2c5.6-4.9,11-9.7,16.1-14.2
				c4.9-4.9,9.7-9.4,14.1-13.9c4.2-4.7,8.5-8.9,12.1-13.2c3.6-4.3,7.1-8.2,10-12.1c3-3.8,5.8-7.4,8.1-10.7c2.4-3.3,4.4-6.3,6.1-8.9
				c1.8-2.6,3.1-4.9,4.3-6.8c2.2-3.7,3.3-5.8,3.3-5.8c0.1-0.1,0.2-0.1,0.3-0.1C2974.8,2950.8,2974.8,2950.9,2974.8,2951z"/>
		</g>
		<g>
			<path fill="#91B3FA" d="M3161.2,2282.9c1.5-9.4-10.5-14.6-16.3-7c-55.4,73.1-206.8,260.2-354.8,332.8
				c-241.1,118.2-471.2,373.8-424.5,571.5C2365.7,3180.2,2993.5,3303.1,3161.2,2282.9z"/>
			<path opacity="0.5" fill="#FFFFFF" d="M3098.9,2393.9c0,0-0.4,0.8-1.3,2.5c-0.9,1.6-2.3,4.2-4.1,7.2c-3.6,6.2-8.9,15.2-15.9,26.5
				c-14,22.6-34.4,54.8-60.1,92.5c-13,18.8-27,39.1-42.4,60.3c-15.2,21.3-31.7,43.4-49,66.1c-17.5,22.5-35.7,45.8-54.8,68.9
				c-4.8,5.8-9.5,11.6-14.3,17.4c-4.9,5.8-9.8,11.5-14.7,17.3c-9.7,11.6-19.8,23-29.8,34.5c-10,11.5-20.3,22.7-30.5,34
				c-10.4,11-20.8,22-31.1,33c-10.5,10.7-20.8,21.5-31.3,31.8c-5.2,5.1-10.5,10.3-15.6,15.3c-5.2,5.1-10.3,10.1-15.6,15
				c-20.7,19.7-41.2,38.3-61.2,55.2c-19.9,17-39.3,32.5-57.3,46.5c-9.2,6.8-17.9,13.4-26.3,19.6c-8.4,6.1-16.7,11.6-24.3,16.9
				c-3.8,2.6-7.5,5.2-11.1,7.6c-3.7,2.3-7.2,4.6-10.6,6.7c-6.8,4.3-13,8.3-18.6,11.8c-11.4,7-20.6,12-26.7,15.6
				c-6.2,3.6-9.5,5.5-9.5,5.5c-0.8,0.5-1.8,0.2-2.3-0.6c-0.5-0.8-0.2-1.8,0.6-2.3l0.1,0c0,0,3.2-2,9.2-5.8c6-3.8,14.9-9.2,26.1-16.4
				c5.5-3.7,11.6-7.8,18.2-12.3c3.3-2.2,6.8-4.6,10.3-7c3.5-2.5,7.1-5.2,10.8-7.9c7.4-5.5,15.4-11.2,23.7-17.4
				c8.2-6.3,16.8-13,25.8-20c17.7-14.2,36.7-29.9,56.2-47.2c19.5-17.3,39.8-35.8,60.3-55.5c5.2-4.9,10.3-9.9,15.4-15
				c5.1-5.1,10.3-10.2,15.5-15.4c10.4-10.3,20.5-21.1,30.9-31.8c10.2-10.9,20.4-21.9,30.7-33c10-11.3,20.4-22.3,30.4-33.7
				c10-11.4,20.1-22.7,29.9-34.3c4.9-5.7,9.8-11.5,14.7-17.2c4.8-5.8,9.6-11.6,14.4-17.3c19.1-23,37.4-46,54.9-68.4
				c17.4-22.5,34.2-44.3,49.7-65.3c15.6-20.9,30-41,43.2-59.5c13-18.7,25.1-35.7,35.5-51c10.4-15.3,19.3-28.7,26.6-39.9
				c7.2-11.2,12.9-19.9,16.6-26c1.8-3,3.2-5.3,4.2-6.8c0.9-1.6,1.4-2.4,1.4-2.4l0.1-0.2c0.5-0.8,1.5-1.1,2.3-0.6
				C3099,2392.1,3099.3,2393.1,3098.9,2393.9z"/>
		</g>
		<g>
			<linearGradient id="SVGID_5_" gradientUnits="userSpaceOnUse" x1="1503.568" y1="2549.3447" x2="2559.501" y2="2541.8823">
				<stop  offset="0" style="stop-color:#FF928E"/>
				<stop  offset="1" style="stop-color:#FE7062"/>
			</linearGradient>
			<path fill="url(#SVGID_5_)" d="M2472.8,3242.5h-535.2v-1356c0-22.3,18.1-40.4,40.4-40.4h454.4c22.3,0,40.4,18.1,40.4,40.4V3242.5
				z"/>
			<linearGradient id="SVGID_6_" gradientUnits="userSpaceOnUse" x1="2666.873" y1="1645.8029" x2="750.4268" y2="4572.5444">
				<stop  offset="0" style="stop-color:#FF928E"/>
				<stop  offset="1" style="stop-color:#FE7062"/>
			</linearGradient>
			<path fill="url(#SVGID_6_)" d="M2336.9,3242.5h-535.2v-1356c0-22.3,18.1-40.4,40.4-40.4h454.4c22.3,0,40.4,18.1,40.4,40.4V3242.5
				z"/>
			<g>
				<path opacity="0.72" fill="#FFFFFF" d="M1837.6,2107c-2.8,0-5.1-2.3-5.1-5.1v-99.1c0-52.9,30.2-96,67.2-96h102.8
					c2.8,0,5.1,2.3,5.1,5.1c0,2.8-2.3,5.1-5.1,5.1h-102.8c-31.5,0-57.1,38.5-57.1,85.9v99.1C1842.6,2104.8,1840.4,2107,1837.6,2107z
					"/>
				<path opacity="0.72" fill="#FFFFFF" d="M1837.6,2212.1c-2.8,0-5.1-2.3-5.1-5.1v-40.4c0-2.8,2.3-5.1,5.1-5.1
					c2.8,0,5.1,2.3,5.1,5.1v40.4C1842.6,2209.8,1840.4,2212.1,1837.6,2212.1z"/>
			</g>
		</g>
		<g>
			<linearGradient id="SVGID_7_" gradientUnits="userSpaceOnUse" x1="1031.0156" y1="2754.8774" x2="1659.1128" y2="2773.7959">
				<stop  offset="0" style="stop-color:#4F52FF"/>
				<stop  offset="1" style="stop-color:#4042E2"/>
			</linearGradient>
			<path fill="url(#SVGID_7_)" d="M1725.5,3240.5h-461.2v-904.2c0-22.3,18.1-40.4,40.4-40.4h380.3c22.3,0,40.4,18.1,40.4,40.4
				V3240.5z"/>
			<linearGradient id="SVGID_8_" gradientUnits="userSpaceOnUse" x1="997.5634" y1="2840.8096" x2="2630.177" y2="2528.8462">
				<stop  offset="0" style="stop-color:#4F52FF"/>
				<stop  offset="1" style="stop-color:#4042E2"/>
			</linearGradient>
			<path fill="url(#SVGID_8_)" d="M1589.6,3240.5h-461.2v-904.2c0-22.3,18.1-40.4,40.4-40.4h380.3c22.3,0,40.4,18.1,40.4,40.4
				V3240.5z"/>
			<g>
				<path fill="#91B3FA" d="M1166.5,2565.4c-2.8,0-5.1-2.3-5.1-5.1v-111.9c0-59.4,35.2-107.8,78.4-107.8h121.3
					c2.8,0,5.1,2.3,5.1,5.1c0,2.8-2.3,5.1-5.1,5.1h-121.3c-37.6,0-68.3,43.8-68.3,97.7v111.9
					C1171.6,2563.2,1169.3,2565.4,1166.5,2565.4z"/>
				<path fill="#91B3FA" d="M1166.5,2684.1c-2.8,0-5.1-2.3-5.1-5.1v-45.6c0-2.8,2.3-5.1,5.1-5.1c2.8,0,5.1,2.3,5.1,5.1v45.6
					C1171.6,2681.8,1169.3,2684.1,1166.5,2684.1z"/>
			</g>
		</g>
		<g>
			<path fill="#FFFFFF" d="M2836,635.5l60.6,122.7c5.5,11.2,16.2,19,28.6,20.8l135.4,19.7c31.2,4.5,43.6,42.8,21.1,64.8l-98,95.5
				c-9,8.7-13,21.3-10.9,33.6l23.1,134.9c5.3,31-27.3,54.7-55.1,40l-121.1-63.7c-11.1-5.8-24.3-5.8-35.4,0l-121.1,63.7
				c-27.9,14.7-60.4-9-55.1-40l23.1-134.9c2.1-12.3-2-24.9-10.9-33.6l-98-95.5c-22.5-22-10.1-60.3,21.1-64.8l135.4-19.7
				c12.4-1.8,23.1-9.6,28.6-20.8l60.6-122.7C2781.8,607.3,2822.1,607.3,2836,635.5z"/>
			<linearGradient id="SVGID_9_" gradientUnits="userSpaceOnUse" x1="2877.2725" y1="652.1456" x2="2634.519" y2="1306.0951">
				<stop  offset="0" style="stop-color:#FF928E"/>
				<stop  offset="1" style="stop-color:#FE7062"/>
			</linearGradient>
			<path fill="url(#SVGID_9_)" d="M2958.5,1149.1c-2.4,0-4.7-0.6-7-1.8l-121.1-63.7c-8.7-4.6-18.5-7-28.4-7c-9.8,0-19.6,2.4-28.4,7
				l-121.1,63.7c-2.3,1.2-4.6,1.8-7,1.8c-4.4,0-8.7-2.1-11.6-5.6c-2-2.4-4.2-6.4-3.2-12.1l23.1-134.9c3.4-19.8-3.2-39.9-17.5-53.9
				l-98-95.5c-6-5.9-4.7-12.7-3.8-15.4c0.9-2.7,3.8-9,12.1-10.2l135.4-19.7c19.9-2.9,37-15.3,45.9-33.3l60.6-122.7
				c3.7-7.6,10.7-8.4,13.5-8.4c2.8,0,9.8,0.8,13.5,8.4l60.6,122.7c8.9,18,26,30.5,45.9,33.3l135.4,19.7c8.4,1.2,11.3,7.6,12.1,10.2
				c0.9,2.7,2.2,9.5-3.8,15.4l-98,95.5c-14.4,14-20.9,34.2-17.5,53.9l23.1,134.9c1,5.7-1.2,9.7-3.2,12.1
				C2967.2,1147,2962.8,1149.1,2958.5,1149.1z"/>
			<path opacity="0.72" fill="#FFFFFF" d="M2673.5,963.8c-1.5,0-2.8-0.9-3.3-2.4c-4-12.4-11.1-23.7-20.4-32.7l-37.3-36.3
				c-1.4-1.3-1.4-3.5-0.1-4.9c1.3-1.4,3.5-1.4,4.9-0.1l37.3,36.3c10.1,9.8,17.7,22.1,22.1,35.6c0.6,1.8-0.4,3.7-2.2,4.3
				C2674.2,963.7,2673.9,963.8,2673.5,963.8z"/>
			<path opacity="0.72" fill="#FFFFFF" d="M2746.7,1075.2c-1.2,0-2.4-0.7-3-1.8c-0.9-1.7-0.2-3.8,1.4-4.6l16.2-8.5
				c12.5-6.6,26.5-10,40.6-10c14.1,0,28.2,3.5,40.6,10c1.7,0.9,2.3,3,1.4,4.6c-0.9,1.7-3,2.3-4.6,1.4c-11.5-6-24.4-9.2-37.4-9.2
				c-13,0-25.9,3.2-37.4,9.2l-16.2,8.5C2747.8,1075.1,2747.3,1075.2,2746.7,1075.2z"/>
			<path opacity="0.72" fill="#FFFFFF" d="M2915.3,1102.6c-2.7,0-5.4-0.4-8.1-1.2c-1.8-0.6-2.8-2.5-2.3-4.3c0.6-1.8,2.5-2.8,4.3-2.3
				c7,2.1,14.5,0.5,20.1-4.5c5.6-4.9,8.1-12,6.8-19.4l-12-69.9c-4.9-28.3,4.5-57.2,25.1-77.3l50.8-49.5c5.9-5.8,7.9-13.9,5.4-21.7
				c-2.5-7.8-8.9-13.2-17.1-14.4l-70.2-10.2c-28.5-4.1-53-22-65.8-47.8l-31.4-63.6c-3.6-7.4-10.8-11.8-19-11.8
				c-8.2,0-15.3,4.4-19,11.8l-31.4,63.6c-12.7,25.8-37.3,43.6-65.8,47.8l-70.2,10.2c-4.2,0.6-8,2.4-11,5.1c-1.4,1.3-3.6,1.1-4.9-0.3
				c-1.3-1.4-1.1-3.6,0.3-4.9c4-3.6,9.1-5.9,14.6-6.7l70.2-10.2c26.2-3.8,48.9-20.3,60.6-44l31.4-63.6c4.8-9.7,14.4-15.6,25.2-15.6
				c10.8,0,20.4,6,25.2,15.6l31.4,63.6c11.7,23.8,34.4,40.2,60.6,44l70.2,10.2c10.7,1.5,19.3,8.9,22.7,19.1
				c3.3,10.2,0.6,21.3-7.1,28.8l-50.8,49.5c-19,18.5-27.6,45.1-23.1,71.2l12,69.9c1.7,9.7-1.7,19.3-9.1,25.8
				C2928.6,1100.2,2922,1102.6,2915.3,1102.6z"/>
		</g>
		<g>
			<path fill="#FFFFFF" d="M2187,1280.4l52.5,106.4c4.8,9.7,14.1,16.5,24.8,18l117.4,17.1c27,3.9,37.8,37.1,18.3,56.2l-85,82.8
				c-7.8,7.6-11.3,18.5-9.5,29.2l20.1,116.9c4.6,26.9-23.6,47.4-47.8,34.7l-105-55.2c-9.6-5-21.1-5-30.7,0l-105,55.2
				c-24.2,12.7-52.4-7.8-47.8-34.7l20.1-116.9c1.8-10.7-1.7-21.6-9.5-29.2l-85-82.8c-19.6-19.1-8.8-52.3,18.3-56.2l117.4-17.1
				c10.7-1.6,20-8.3,24.8-18l52.5-106.4C2140,1255.9,2174.9,1255.9,2187,1280.4z"/>
			<linearGradient id="SVGID_10_" gradientUnits="userSpaceOnUse" x1="2198.5671" y1="1320.6417" x2="2044.9883" y2="1821.01">
				<stop  offset="0" style="stop-color:#FF928E"/>
				<stop  offset="1" style="stop-color:#FE7062"/>
			</linearGradient>
			<path fill="url(#SVGID_10_)" d="M2293.1,1725.7c-2,0-4.1-0.5-6.1-1.6l-105-55.2c-7.6-4-16.1-6.1-24.6-6.1s-17,2.1-24.6,6.1
				l-105,55.2c-2,1-4,1.6-6.1,1.6c-3.8,0-7.5-1.8-10.1-4.8c-1.7-2-3.6-5.5-2.8-10.5l20.1-116.9c2.9-17.1-2.7-34.6-15.2-46.8
				l-85-82.8c-5.2-5.1-4.1-11.1-3.3-13.4c0.8-2.3,3.3-7.8,10.5-8.9l117.4-17.1c17.2-2.5,32.1-13.3,39.8-28.9l52.5-106.4
				c3.2-6.6,9.3-7.3,11.7-7.3s8.5,0.7,11.7,7.3l52.5,106.4c7.7,15.6,22.6,26.4,39.8,28.9l117.4,17.1c7.2,1.1,9.8,6.6,10.5,8.9
				c0.8,2.3,1.9,8.3-3.3,13.4l-85,82.8c-12.5,12.1-18.1,29.6-15.2,46.8l20.1,116.9c0.9,5-1,8.4-2.8,10.5
				C2300.7,1723.9,2296.9,1725.7,2293.1,1725.7z"/>
			<path opacity="0.72" fill="#FFFFFF" d="M2046.1,1565c-1.3,0-2.4-0.8-2.8-2.1c-3.5-10.7-9.6-20.5-17.7-28.4l-32.3-31.5
				c-1.2-1.2-1.2-3-0.1-4.2c1.2-1.2,3-1.2,4.2-0.1l32.3,31.5c8.8,8.5,15.4,19.2,19.2,30.8c0.5,1.6-0.3,3.3-1.9,3.8
				C2046.7,1564.9,2046.4,1565,2046.1,1565z"/>
			<path opacity="0.72" fill="#FFFFFF" d="M2109.5,1661.7c-1.1,0-2.1-0.6-2.6-1.6c-0.8-1.5-0.2-3.3,1.3-4l14.1-7.4
				c10.8-5.7,23-8.7,35.2-8.7c12.2,0,24.4,3,35.2,8.7c1.5,0.8,2,2.6,1.3,4c-0.8,1.5-2.6,2-4,1.3c-10-5.2-21.2-8-32.5-8
				c-11.3,0-22.5,2.8-32.5,8l-14.1,7.4C2110.5,1661.5,2110,1661.7,2109.5,1661.7z"/>
			<path opacity="0.72" fill="#FFFFFF" d="M2255.7,1685.4c-2.3,0-4.7-0.3-7-1.1c-1.6-0.5-2.5-2.2-2-3.7c0.5-1.6,2.1-2.5,3.7-2
				c6,1.8,12.6,0.4,17.4-3.9c4.9-4.3,7-10.4,5.9-16.9l-10.4-60.6c-4.2-24.6,3.9-49.6,21.8-67l44-42.9c5.1-5,6.9-12,4.6-18.8
				c-2.2-6.8-7.8-11.5-14.8-12.5l-60.8-8.8c-24.7-3.6-46-19.1-57-41.4l-27.2-55.1c-3.2-6.4-9.3-10.2-16.5-10.2s-13.3,3.8-16.5,10.2
				l-27.2,55.1c-11,22.4-32.3,37.8-57,41.4l-60.8,8.8c-3.6,0.5-6.9,2-9.6,4.4c-1.2,1.1-3.1,1-4.2-0.2c-1.1-1.2-1-3.1,0.2-4.2
				c3.5-3.1,7.9-5.2,12.7-5.9l60.8-8.8c22.7-3.3,42.4-17.6,52.5-38.2l27.2-55.1c4.1-8.4,12.5-13.6,21.8-13.6s17.7,5.2,21.8,13.6
				l27.2,55.1c10.2,20.6,29.8,34.9,52.5,38.2l60.8,8.8c9.2,1.3,16.8,7.7,19.6,16.6c2.9,8.9,0.5,18.4-6.2,25l-44,42.9
				c-16.4,16-23.9,39.1-20.1,61.7l10.4,60.6c1.4,8.4-1.5,16.7-7.9,22.3C2267.2,1683.3,2261.5,1685.4,2255.7,1685.4z"/>
		</g>
		<g>
			<path fill="#FFFFFF" d="M1414.6,1851.7l44.5,90.1c4.1,8.2,11.9,13.9,21,15.3l99.4,14.4c22.9,3.3,32,31.4,15.5,47.6l-71.9,70.1
				c-6.6,6.4-9.6,15.6-8,24.7l17,99c3.9,22.8-20,40.2-40.5,29.4l-88.9-46.7c-8.1-4.3-17.8-4.3-26,0l-88.9,46.7
				c-20.5,10.8-44.4-6.6-40.5-29.4l17-99c1.6-9-1.4-18.3-8-24.7l-71.9-70.1c-16.6-16.1-7.4-44.2,15.5-47.6l99.4-14.4
				c9.1-1.3,16.9-7,21-15.3l44.5-90.1C1374.8,1831,1404.4,1831,1414.6,1851.7z"/>
			<linearGradient id="SVGID_11_" gradientUnits="userSpaceOnUse" x1="1419.5505" y1="1882.0811" x2="1310.5588" y2="2308.1409">
				<stop  offset="0" style="stop-color:#FF928E"/>
				<stop  offset="1" style="stop-color:#FE7062"/>
			</linearGradient>
			<path fill="url(#SVGID_11_)" d="M1504.5,2228.7c-1.7,0-3.5-0.4-5.1-1.3l-88.9-46.7c-6.4-3.4-13.6-5.1-20.8-5.1
				c-7.2,0-14.4,1.8-20.8,5.1l-88.9,46.7c-1.7,0.9-3.4,1.3-5.1,1.3c-3.2,0-6.4-1.5-8.5-4.1c-1.5-1.7-3.1-4.7-2.3-8.9l17-99
				c2.5-14.5-2.3-29.3-12.9-39.6L1196,2007c-4.4-4.3-3.4-9.4-2.8-11.3c0.6-2,2.8-6.6,8.9-7.5l99.4-14.4
				c14.6-2.1,27.2-11.3,33.7-24.5l44.5-90.1c2.7-5.6,7.8-6.2,9.9-6.2c2.1,0,7.2,0.6,9.9,6.2l44.5,90.1c6.5,13.2,19.1,22.4,33.7,24.5
				l99.4,14.4c6.1,0.9,8.3,5.6,8.9,7.5c0.6,2,1.6,7-2.8,11.3l-71.9,70.1c-10.5,10.3-15.4,25.1-12.9,39.6l17,99
				c0.7,4.2-0.9,7.2-2.3,8.9C1510.9,2227.1,1507.7,2228.7,1504.5,2228.7z"/>
			<path opacity="0.72" fill="#FFFFFF" d="M1295.3,2092.6c-1.1,0-2.1-0.7-2.4-1.7c-2.9-9.1-8.1-17.4-14.9-24l-27.4-26.7
				c-1-1-1-2.6,0-3.6c1-1,2.6-1,3.6,0l27.4,26.7c7.4,7.2,13,16.3,16.2,26.1c0.4,1.3-0.3,2.8-1.6,3.2
				C1295.8,2092.6,1295.6,2092.6,1295.3,2092.6z"/>
			<path opacity="0.72" fill="#FFFFFF" d="M1349,2174.5c-0.9,0-1.8-0.5-2.2-1.4c-0.6-1.2-0.2-2.8,1.1-3.4l11.9-6.3
				c9.2-4.8,19.5-7.4,29.8-7.4c10.4,0,20.7,2.5,29.8,7.4c1.2,0.6,1.7,2.2,1.1,3.4c-0.6,1.2-2.2,1.7-3.4,1.1
				c-8.4-4.4-17.9-6.8-27.5-6.8c-9.5,0-19,2.3-27.5,6.8l-11.9,6.3C1349.8,2174.4,1349.4,2174.5,1349,2174.5z"/>
			<path opacity="0.72" fill="#FFFFFF" d="M1472.8,2194.5c-2,0-4-0.3-5.9-0.9c-1.3-0.4-2.1-1.8-1.7-3.2c0.4-1.3,1.8-2.1,3.2-1.7
				c5.1,1.6,10.6,0.3,14.7-3.3c4.1-3.6,5.9-8.8,5-14.3l-8.8-51.3c-3.6-20.8,3.3-42,18.4-56.7l37.3-36.3c4.3-4.2,5.8-10.2,3.9-15.9
				c-1.9-5.8-6.6-9.7-12.6-10.6l-51.5-7.5c-20.9-3-38.9-16.1-48.3-35.1l-23-46.7c-2.7-5.4-7.9-8.7-13.9-8.7s-11.3,3.2-13.9,8.7
				l-23,46.7c-9.3,18.9-27.4,32-48.3,35.1l-51.5,7.5c-3.1,0.4-5.9,1.7-8.1,3.7c-1,0.9-2.6,0.8-3.6-0.2c-0.9-1-0.8-2.6,0.2-3.6
				c3-2.7,6.7-4.4,10.7-5l51.5-7.5c19.2-2.8,35.9-14.9,44.5-32.3l23-46.7c3.5-7.1,10.6-11.5,18.5-11.5s15,4.4,18.5,11.5l23,46.7
				c8.6,17.4,25.2,29.5,44.5,32.3l51.5,7.5c7.8,1.1,14.2,6.5,16.6,14c2.4,7.5,0.4,15.6-5.2,21.1l-37.3,36.3
				c-13.9,13.6-20.3,33.1-17,52.3l8.8,51.3c1.2,7.1-1.3,14.2-6.7,18.9C1482.5,2192.7,1477.7,2194.5,1472.8,2194.5z"/>
		</g>
		<g>
			<path fill="#FFFFFF" d="M725.3,2333.4l36.4,73.8c3.3,6.7,9.8,11.4,17.2,12.5l81.4,11.8c18.7,2.7,26.2,25.7,12.7,39l-58.9,57.4
				c-5.4,5.2-7.8,12.8-6.6,20.2l13.9,81.1c3.2,18.7-16.4,32.9-33.1,24.1l-72.8-38.3c-6.7-3.5-14.6-3.5-21.3,0l-72.8,38.3
				c-16.8,8.8-36.3-5.4-33.1-24.1l13.9-81.1c1.3-7.4-1.2-15-6.6-20.2l-58.9-57.4c-13.6-13.2-6.1-36.2,12.7-39l81.4-11.8
				c7.4-1.1,13.9-5.8,17.2-12.5l36.4-73.8C692.7,2316.4,716.9,2316.4,725.3,2333.4z"/>
			<linearGradient id="SVGID_12_" gradientUnits="userSpaceOnUse" x1="729.6965" y1="2394.7881" x2="605.8425" y2="2736.625">
				<stop  offset="0" style="stop-color:#FF928E"/>
				<stop  offset="1" style="stop-color:#FE7062"/>
			</linearGradient>
			<path fill="url(#SVGID_12_)" d="M798.9,2642.1c-1.4,0-2.8-0.4-4.2-1.1l-72.8-38.3c-5.2-2.8-11.1-4.2-17-4.2
				c-5.9,0-11.8,1.5-17,4.2L615,2641c-1.4,0.7-2.8,1.1-4.2,1.1c-2.6,0-5.2-1.3-7-3.3c-1.2-1.4-2.5-3.8-1.9-7.3l13.9-81.1
				c2-11.9-1.9-24-10.5-32.4l-58.9-57.4c-3.6-3.5-2.8-7.7-2.3-9.3c0.5-1.6,2.3-5.4,7.3-6.2l81.4-11.8c11.9-1.7,22.2-9.2,27.6-20
				l36.4-73.8c2.2-4.5,6.4-5,8.1-5s5.9,0.5,8.1,5l36.4,73.8c5.3,10.8,15.6,18.3,27.6,20l81.4,11.8c5,0.7,6.8,4.5,7.3,6.2
				c0.5,1.6,1.3,5.7-2.3,9.3l-58.9,57.4c-8.6,8.4-12.6,20.5-10.5,32.4l13.9,81.1c0.6,3.4-0.7,5.9-1.9,7.3
				C804.1,2640.9,801.5,2642.1,798.9,2642.1z"/>
			<path opacity="0.72" fill="#FFFFFF" d="M627.6,2530.7c-0.9,0-1.7-0.6-2-1.4c-2.4-7.4-6.6-14.2-12.2-19.7l-22.4-21.8
				c-0.8-0.8-0.8-2.1,0-2.9c0.8-0.8,2.1-0.8,2.9,0l22.4,21.8c6.1,5.9,10.7,13.3,13.3,21.4c0.4,1.1-0.2,2.3-1.3,2.6
				C628.1,2530.7,627.8,2530.7,627.6,2530.7z"/>
			<path opacity="0.72" fill="#FFFFFF" d="M671.6,2597.7c-0.7,0-1.5-0.4-1.8-1.1c-0.5-1-0.1-2.3,0.9-2.8l9.7-5.1
				c7.5-3.9,16-6,24.4-6c8.5,0,16.9,2.1,24.4,6c1,0.5,1.4,1.8,0.9,2.8c-0.5,1-1.8,1.4-2.8,0.9c-6.9-3.6-14.7-5.6-22.5-5.6
				c-7.8,0-15.6,1.9-22.5,5.6l-9.7,5.1C672.3,2597.6,672,2597.7,671.6,2597.7z"/>
			<path opacity="0.72" fill="#FFFFFF" d="M772.9,2614.2c-1.6,0-3.3-0.2-4.9-0.7c-1.1-0.3-1.7-1.5-1.4-2.6c0.3-1.1,1.5-1.7,2.6-1.4
				c4.2,1.3,8.7,0.3,12.1-2.7c3.4-3,4.9-7.2,4.1-11.7l-7.2-42c-2.9-17,2.7-34.4,15.1-46.5l30.5-29.8c3.5-3.5,4.8-8.3,3.2-13.1
				c-1.5-4.7-5.4-8-10.3-8.7l-42.2-6.1c-17.1-2.5-31.9-13.2-39.5-28.7l-18.9-38.2c-2.2-4.4-6.5-7.1-11.4-7.1s-9.2,2.7-11.4,7.1
				l-18.9,38.2c-7.6,15.5-22.4,26.2-39.5,28.7l-42.2,6.1c-2.5,0.4-4.8,1.4-6.6,3c-0.9,0.8-2.2,0.7-2.9-0.2c-0.8-0.9-0.7-2.2,0.2-2.9
				c2.4-2.2,5.5-3.6,8.8-4.1l42.2-6.1c15.8-2.3,29.4-12.2,36.4-26.5l18.9-38.2c2.9-5.8,8.7-9.4,15.1-9.4s12.3,3.6,15.1,9.4
				l18.9,38.2c7,14.3,20.7,24.2,36.4,26.5l42.2,6.1c6.4,0.9,11.6,5.3,13.6,11.5c2,6.2,0.4,12.8-4.3,17.3l-30.5,29.8
				c-11.4,11.1-16.6,27.1-13.9,42.8l7.2,42c1,5.8-1,11.6-5.5,15.5C780.9,2612.7,777,2614.2,772.9,2614.2z"/>
		</g>
		<g>
			<linearGradient id="SVGID_13_" gradientUnits="userSpaceOnUse" x1="481.8467" y1="3005.8369" x2="1149.0985" y2="3005.8369">
				<stop  offset="0" style="stop-color:#FF928E"/>
				<stop  offset="1" style="stop-color:#FE7062"/>
			</linearGradient>
			<path fill="url(#SVGID_13_)" d="M1054.9,3240.5H593.7v-429c0-22.3,18.1-40.4,40.4-40.4h380.3c22.3,0,40.4,18.1,40.4,40.4V3240.5z
				"/>
			<linearGradient id="SVGID_14_" gradientUnits="userSpaceOnUse" x1="949.9048" y1="2620.5605" x2="115.1328" y2="3895.4001">
				<stop  offset="0" style="stop-color:#FF928E"/>
				<stop  offset="1" style="stop-color:#FE7062"/>
			</linearGradient>
			<path fill="url(#SVGID_14_)" d="M918.9,3240.5H457.8v-429c0-22.3,18.1-40.4,40.4-40.4h380.3c22.3,0,40.4,18.1,40.4,40.4V3240.5z"
				/>
			<g>
				<path opacity="0.72" fill="#FFFFFF" d="M490.5,3032.9c-2.8,0-5.1-2.3-5.1-5.1v-111.9c0-59.4,35.2-107.8,78.4-107.8h121.3
					c2.8,0,5.1,2.3,5.1,5.1c0,2.8-2.3,5.1-5.1,5.1H563.9c-37.6,0-68.3,43.8-68.3,97.7v111.9C495.6,3030.6,493.3,3032.9,490.5,3032.9
					z"/>
				<path opacity="0.72" fill="#FFFFFF" d="M490.5,3151.5c-2.8,0-5.1-2.3-5.1-5.1v-45.6c0-2.8,2.3-5.1,5.1-5.1
					c2.8,0,5.1,2.3,5.1,5.1v45.6C495.6,3149.3,493.3,3151.5,490.5,3151.5z"/>
			</g>
		</g>
		<g>
			<g>
				
					<linearGradient id="SVGID_15_" gradientUnits="userSpaceOnUse" x1="1354.2705" y1="1774.7762" x2="1383.8762" y2="1774.7762" gradientTransform="matrix(0.9914 0.1312 -0.1312 0.9914 55.9688 -96.9526)">
					<stop  offset="0" style="stop-color:#4F52FF"/>
					<stop  offset="1" style="stop-color:#4042E2"/>
				</linearGradient>
				<path fill="url(#SVGID_15_)" d="M1191.1,1784.4c3.2-15.4,9.8-25.7,16.2-32.4c-12.1,2.3-17.6,10.3-23.3,33
					c-6.8,27-22.4,100.4-26.1,116.6c-3.7,16.2,2,25.2,6.5,31.2c1.5,2,4.3,1.5,7.8-0.5c-5.4-9.2-6.9-18-7.3-25.2
					C1164.3,1895.8,1183.6,1820.4,1191.1,1784.4z"/>
				
					<linearGradient id="SVGID_16_" gradientUnits="userSpaceOnUse" x1="1361.9235" y1="1766.6348" x2="1449.5961" y2="1766.6348" gradientTransform="matrix(0.9914 0.1312 -0.1312 0.9914 55.9688 -96.9526)">
					<stop  offset="0" style="stop-color:#09005D"/>
					<stop  offset="1" style="stop-color:#1A0F91"/>
				</linearGradient>
				<path fill="url(#SVGID_16_)" d="M1269.8,1773l-16.7-28.8c0,0-20.5,6.7-38.2,7.1c-2.8,0.1-5.3,0.3-7.6,0.7
					c-6.4,6.7-12.9,17-16.2,32.4c-7.5,35.9-26.8,111.3-26.2,122.6c0.4,7.2,1.9,16,7.3,25.2c7.2-4.2,17.3-15.3,25.4-26.9
					c12.1-17.3,52.1-68.7,62.5-88.4C1270.6,1797.2,1269.8,1773,1269.8,1773z"/>
			</g>
			<g>
				
					<linearGradient id="SVGID_17_" gradientUnits="userSpaceOnUse" x1="1686.1654" y1="1513.574" x2="1742.3108" y2="1513.574" gradientTransform="matrix(0.9914 0.1312 -0.1312 0.9914 55.9688 -96.9526)">
					<stop  offset="0" style="stop-color:#4F52FF"/>
					<stop  offset="1" style="stop-color:#4042E2"/>
				</linearGradient>
				<path fill="url(#SVGID_17_)" d="M1575.3,1572c5.7-14.7,13.9-23.7,21.3-29.3c-12.3,0.2-19.1,7.2-28.5,28.7
					c-11.2,25.5-38.7,95.3-45,110.7c-6.3,15.4-2.2,25.2,1.3,31.8c1.1,2.2,4,2.2,7.8,0.8c-3.8-10-3.8-18.9-3-26
					C1530.4,1677.4,1561.9,1606.2,1575.3,1572z"/>
				
					<linearGradient id="SVGID_18_" gradientUnits="userSpaceOnUse" x1="1694.5968" y1="1509.6359" x2="1804.0428" y2="1509.6359" gradientTransform="matrix(0.9914 0.1312 -0.1312 0.9914 55.9688 -96.9526)">
					<stop  offset="0" style="stop-color:#09005D"/>
					<stop  offset="1" style="stop-color:#1A0F91"/>
				</linearGradient>
				<path fill="url(#SVGID_18_)" d="M1654.7,1573.7l-11.7-31.1c0,0-21.4,3.2-38.9,0.7c-2.8-0.4-5.3-0.6-7.6-0.5
					c-7.4,5.6-15.6,14.6-21.3,29.3c-13.3,34.2-44.9,105.4-46.1,116.6c-0.8,7.1-0.8,16.1,3,26c7.8-3,19.6-12.2,29.5-22.4
					c14.8-15.1,62.8-59.1,76.3-76.9C1651.5,1597.7,1654.7,1573.7,1654.7,1573.7z"/>
			</g>
			
				<linearGradient id="SVGID_19_" gradientUnits="userSpaceOnUse" x1="2292.8196" y1="483.2093" x2="2535.2654" y2="483.2093" gradientTransform="matrix(0.9914 0.1312 -0.1312 0.9914 55.9688 -96.9526)">
				<stop  offset="0" style="stop-color:#FEBBBA"/>
				<stop  offset="1" style="stop-color:#FF928E"/>
			</linearGradient>
			<path fill="url(#SVGID_19_)" d="M2258.2,757.4L2434.3,654c1.1-0.6,1.9-1.6,2.5-2.7l24.2-52.9c0.7-1.4,1.8-2.5,3.3-3.1l11.8-4.8
				c1.2-0.5,2.5-0.6,3.7-0.3l33.6,7.8c2.7,0.6,4.7,3,4.7,5.8l0.5,16.3c0,1.6-0.5,3.1-1.6,4.3l-5.4,6c-1.6,1.7-2,4.2-1.2,6.4l0,0
				c0.9,2.4,0.3,5.2-1.7,6.9c-6.5,5.5-22.5,17.6-46.5,24.3c-0.8,0.2-1.6,0.6-2.3,1.2L2295.7,806c-2.7,2.2-6.6,1.8-8.7-0.9
				l-30.5-38.6C2254.2,763.6,2255,759.3,2258.2,757.4z"/>
			
				<linearGradient id="SVGID_20_" gradientUnits="userSpaceOnUse" x1="2263.7261" y1="569.4487" x2="1988.7128" y2="1027.3324" gradientTransform="matrix(0.9914 0.1312 -0.1312 0.9914 55.9688 -96.9526)">
				<stop  offset="0" style="stop-color:#4F52FF"/>
				<stop  offset="1" style="stop-color:#4042E2"/>
			</linearGradient>
			<path fill="url(#SVGID_20_)" d="M1998.7,916.8l252.3-160.2c5-3.1,11.5-2.2,15.3,2.2c8.5,9.8,22.4,27.2,28,41.9
				c2.1,5.5,0.2,11.7-4.5,15.2l-264.7,193.9L1998.7,916.8z"/>
			
				<linearGradient id="SVGID_21_" gradientUnits="userSpaceOnUse" x1="1411.4592" y1="1676.9144" x2="1490.8942" y2="1676.9144" gradientTransform="matrix(0.9914 0.1312 -0.1312 0.9914 55.9688 -96.9526)">
				<stop  offset="0" style="stop-color:#FEBBBA"/>
				<stop  offset="1" style="stop-color:#FF928E"/>
			</linearGradient>
			<path fill="url(#SVGID_21_)" d="M1278.2,1709.4c-4.1,4.2-36.1,47.6-43,57c-1.2,1.6-2,3.3-2.5,5.2c-1.3,5.2-2.1,15.3,8,24.2
				c6.2,5.4,15.5,5,21.3-0.8l54.9-55.4L1278.2,1709.4z"/>
			
				<linearGradient id="SVGID_22_" gradientUnits="userSpaceOnUse" x1="1766.0177" y1="1427.7869" x2="1846.1982" y2="1427.7869" gradientTransform="matrix(0.9914 0.1312 -0.1312 0.9914 55.9688 -96.9526)">
				<stop  offset="0" style="stop-color:#FEBBBA"/>
				<stop  offset="1" style="stop-color:#FF928E"/>
			</linearGradient>
			<path fill="url(#SVGID_22_)" d="M1673.5,1512.4c-4.8,3.4-43.4,40.9-51.8,49.1c-1.4,1.4-2.6,3-3.3,4.8c-2.2,4.9-4.6,14.8,3.9,25.1
				c5.2,6.3,14.5,7.5,21.1,2.8l58-51.4L1673.5,1512.4z"/>
			
				<linearGradient id="SVGID_23_" gradientUnits="userSpaceOnUse" x1="2205.5012" y1="889.0736" x2="1686.6887" y2="1390.8765" gradientTransform="matrix(0.9914 0.1312 -0.1312 0.9914 55.9688 -96.9526)">
				<stop  offset="0" style="stop-color:#09005D"/>
				<stop  offset="1" style="stop-color:#1A0F91"/>
			</linearGradient>
			<path fill="url(#SVGID_23_)" d="M1765.8,1300c1.7-13,75.7,1.5,142,2.6c34.9,0.6,49.7,44.5,22.4,66.2l-225,178.1
				c-4.7,3.7-11.1,4.5-16.6,1.9c-7.4-3.6-18.1-9.7-27.1-18.9c-5.2-5.4-5.2-14-0.1-19.5l108.1-117.5l-86.2,13l-366.6,348
				c-6.1,5.7-15.4,6.1-21.9,0.7c-8.5-7-19.7-17.4-26.6-28.2c-3.6-5.7-2.9-13.1,1.5-18.2c41.8-48.5,268.9-312.8,281.9-341.7
				c14.2-31.8,58.5-87.6,92.7-85.3C1678.7,1283.4,1765.8,1300,1765.8,1300z"/>
			
				<linearGradient id="SVGID_24_" gradientUnits="userSpaceOnUse" x1="1933.5729" y1="1241.0735" x2="1849.9351" y2="1313.3707" gradientTransform="matrix(0.9914 0.1312 -0.1312 0.9914 55.9688 -96.9526)">
				<stop  offset="0" style="stop-color:#4F52FF"/>
				<stop  offset="1" style="stop-color:#4042E2"/>
			</linearGradient>
			<path fill="url(#SVGID_24_)" d="M1774.9,1391.7c-0.9-0.1-1.7-0.9-1.8-1.8c-0.1-1.2,0.7-2.2,1.8-2.4l77.3-9.9
				c1.2-0.1,2.2,0.7,2.4,1.8c0.1,1.2-0.7,2.2-1.8,2.4l-77.3,9.9C1775.3,1391.8,1775.1,1391.8,1774.9,1391.7z"/>
			
				<linearGradient id="SVGID_25_" gradientUnits="userSpaceOnUse" x1="1836.2013" y1="1245.7861" x2="1791.3109" y2="1310.0503" gradientTransform="matrix(0.9914 0.1312 -0.1312 0.9914 55.9688 -96.9526)">
				<stop  offset="0" style="stop-color:#4F52FF"/>
				<stop  offset="1" style="stop-color:#4042E2"/>
			</linearGradient>
			<path fill="url(#SVGID_25_)" d="M1691.7,1401.3c-0.5-0.1-1-0.3-1.4-0.7c-0.8-0.9-0.6-2.2,0.3-3l21.3-17.8c0.9-0.8,2.2-0.6,3,0.3
				c0.8,0.9,0.6,2.2-0.3,3l-21.3,17.8C1692.8,1401.2,1692.2,1401.4,1691.7,1401.3z"/>
			
				<linearGradient id="SVGID_26_" gradientUnits="userSpaceOnUse" x1="2129.6448" y1="800.6871" x2="1660.3778" y2="1197.6501" gradientTransform="matrix(0.9914 0.1312 -0.1312 0.9914 55.9688 -96.9526)">
				<stop  offset="0" style="stop-color:#4F52FF"/>
				<stop  offset="1" style="stop-color:#4042E2"/>
			</linearGradient>
			<path fill="url(#SVGID_26_)" d="M2037.2,918.1c0,0,34.1,45.5,18.1,114.1c-4.7,20.2-15.3,38.5-30,53.1L1792.1,1316
				c-5.4,5.3-12.7,8.3-20.2,8.2c-29.8-0.3-108.6-3.6-161.3-29.1c-4.2-2-5.4-7.4-2.6-11.2l223.2-294.7l126.6-113.1
				C1957.8,876.2,2012.4,865.1,2037.2,918.1z"/>
			<path fill="#91B3FA" d="M1744.4,1220.7c-0.8,0-1.7-0.3-2.4-1c-1.3-1.3-1.4-3.4-0.1-4.8c2-2.1,204.3-210.6,219.7-237.3
				c14.3-24.7-8.4-48.2-9.4-49.2c-1.3-1.3-1.3-3.5,0-4.8c1.3-1.3,3.5-1.3,4.8,0c0.3,0.3,27.3,28.1,10.4,57.3
				c-15.8,27.4-212.3,230-220.7,238.6C1746.2,1220.4,1745.3,1220.7,1744.4,1220.7z"/>
			
				<linearGradient id="SVGID_27_" gradientUnits="userSpaceOnUse" x1="1672.1749" y1="1171.329" x2="1840.1075" y2="1171.329" gradientTransform="matrix(0.9914 0.1312 -0.1312 0.9914 55.9688 -96.9526)">
				<stop  offset="0" style="stop-color:#FEBBBA"/>
				<stop  offset="1" style="stop-color:#FF928E"/>
			</linearGradient>
			<path fill="url(#SVGID_27_)" d="M1679.3,1190.8c0,0,30.8,25.5,58.2,32l-97.6,92.9c0,0-21.2,65.7-33.1,73.4
				c-11.9,7.7-43.2,9.8-49.1-6.5c-5.9-16.3-6.4-32.8-6.4-32.8s6-7.1,13,8.2l2.1-16.2c0,0,12.3,7.4,10.7,17.9c0,0-5.8-45,14.4-56.8
				s25.2-13.5,25.2-13.5L1679.3,1190.8z"/>
			
				<linearGradient id="SVGID_28_" gradientUnits="userSpaceOnUse" x1="876.3983" y1="1519.422" x2="1671.7572" y2="896.2538" gradientTransform="matrix(0.9914 0.1312 -0.1312 0.9914 55.9688 -96.9526)">
				<stop  offset="0" style="stop-color:#E1473D"/>
				<stop  offset="1" style="stop-color:#E9605A"/>
			</linearGradient>
			<path fill="url(#SVGID_28_)" d="M1370.8,1139.4c-4.8,0.3-7.9,5-6.4,9.6c7.1,20.7,29.9,67.5,90.3,61.7
				c77.4-7.4,329.2-150.2,387.3-190.6s134.5-90.3,167-77.6c32.5,12.7,14.8-9.5-6.4-28.2c-21.2-18.7-26.8-42.8-10-36.2
				c0,0-40-19.1-108.4,7.6c-66.9,26.1-386.9,103.3-484.4,55.8c-3.6-1.8-7.9,0.1-9.1,4c-7.1,22.7-22.9,94.6,25.9,184.2
				C1416.5,1129.7,1391.8,1138.3,1370.8,1139.4z"/>
			<linearGradient id="SVGID_29_" gradientUnits="userSpaceOnUse" x1="1678.4086" y1="-308.0851" x2="1513.262" y2="854.5505">
				<stop  offset="0" style="stop-color:#FF928E"/>
				<stop  offset="1" style="stop-color:#FE7062"/>
			</linearGradient>
			<path fill="url(#SVGID_29_)" d="M1427,1130.5c-1.3,0-2.6-0.8-3.1-2.1c-0.7-1.7,0.2-3.6,1.9-4.3c0.8-0.3,82.7-31.8,100.7-43
				c1.5-1,3.6-0.5,4.6,1c1,1.5,0.5,3.6-1,4.6c-18.5,11.6-98.4,42.3-101.8,43.6C1427.8,1130.5,1427.4,1130.5,1427,1130.5z"/>
			<g>
				
					<linearGradient id="SVGID_30_" gradientUnits="userSpaceOnUse" x1="1824.1006" y1="-155.0803" x2="1923.9749" y2="-257.5487" gradientTransform="matrix(0.9192 0.3937 -0.3937 0.9192 222.783 320.936)">
					<stop  offset="0" style="stop-color:#FEBBBA"/>
					<stop  offset="1" style="stop-color:#FF928E"/>
				</linearGradient>
				<path fill="url(#SVGID_30_)" d="M2062.6,799.5l-70.6,76.2c-4.6,5-5,12.4-1.1,17.9c6.9,9.6,18.8,23.5,33,28.2
					c4.4,1.5,9.3,0.2,12.3-3.4l38.1-44.4C2074.3,874,2090.4,798.5,2062.6,799.5z"/>
				
					<linearGradient id="SVGID_31_" gradientUnits="userSpaceOnUse" x1="1897.1664" y1="928.1187" x2="1770.7133" y2="1095.4058" gradientTransform="matrix(0.775 -0.6319 0.6319 0.775 13.162 1227.2976)">
					<stop  offset="0" style="stop-color:#FEBBBA"/>
					<stop  offset="1" style="stop-color:#FF928E"/>
				</linearGradient>
				<path fill="url(#SVGID_31_)" d="M2088.7,731.5c1.1,1.3,37.8,105.2,37.8,105.2l-59.8,19.7l-49.4-93.3
					C2017.3,763.1,2071.1,709.9,2088.7,731.5z"/>
				
					<linearGradient id="SVGID_32_" gradientUnits="userSpaceOnUse" x1="1800.5924" y1="968.2927" x2="1951.6427" y2="968.2927" gradientTransform="matrix(0.775 -0.6319 0.6319 0.775 13.162 1227.2976)">
					<stop  offset="0" style="stop-color:#09005D"/>
					<stop  offset="1" style="stop-color:#1A0F91"/>
				</linearGradient>
				<path fill="url(#SVGID_32_)" d="M2041.4,776.7l21.8,50.4c0.3,0.8,0.8,1.5,1.3,2.1c2.9,3.5,13.1,14.1,23.6,3
					c8.9-9.5,17.2-18.1,25.3-21c4.7-1.7,9.9,0.8,11.6,5.6c3.4,9.8,9.9,29.6,13.2,48c0.8,4.6-2.1,9.1-6.6,10.3
					c-12,3.1-35.6,8.5-55.9,8.6c-3.3,0-6.4-1.8-8-4.7c-7-12.9-26.9-49-34.1-58.3c-6.7-8.7-21.2-7.7-27.8-6.7c-2.5,0.4-5-0.3-7-1.9
					c-6-4.8-16-16-3.5-31c3.1-3.7,2.5-9.4-1.2-12.6c-6.6-5.7-13.3-15.7-3.9-29.1c9.5-13.6,23.2-13.2,32.2-10.8c4,1,8.4-0.6,10.5-4.1
					c0.9-1.6,2.5-2.9,5.1-3c5-0.3,8.7-4.3,8.4-9.3c-0.5-8.5,2.1-19.1,16.3-24.6c26-10.1,44.4,14.4,47.4,33.5
					c3,19.1-25.9,28.4-43.2,28.3c-12.7-0.1-21.4,12.7-25.1,19.5C2040.5,771.2,2040.3,774.1,2041.4,776.7z"/>
				
					<linearGradient id="SVGID_33_" gradientUnits="userSpaceOnUse" x1="1711.962" y1="1060.5969" x2="1813.3881" y2="956.5367" gradientTransform="matrix(0.775 -0.6319 0.6319 0.775 13.162 1227.2976)">
					<stop  offset="0" style="stop-color:#FEBBBA"/>
					<stop  offset="1" style="stop-color:#FF928E"/>
				</linearGradient>
				<path fill="url(#SVGID_33_)" d="M2041.9,839.2c0,0-6.6-33-20.6-33.6c-14-0.7-26.6,11.6-11.6,29.4
					C2028.5,857,2041.9,839.2,2041.9,839.2z"/>
			</g>
			
				<linearGradient id="SVGID_34_" gradientUnits="userSpaceOnUse" x1="2495.0427" y1="404.4168" x2="2526.2695" y2="404.4168" gradientTransform="matrix(0.9914 0.1312 -0.1312 0.9914 55.9688 -96.9526)">
				<stop  offset="0" style="stop-color:#E1473D"/>
				<stop  offset="1" style="stop-color:#E9605A"/>
			</linearGradient>
			<path fill="url(#SVGID_34_)" d="M2476.9,638.7c-0.2,0-0.5-0.1-0.7-0.3c-0.6-0.5-0.8-1.4-0.3-2c0.4-0.6,10.4-13.9,20.1-9.5
				c7.6,3.5,9.9,2.9,10,2.9c0.7-0.3,1.5,0,1.8,0.7c0.3,0.7,0,1.6-0.7,1.9c-0.7,0.3-3.6,1.1-12.3-2.9c-7.6-3.5-16.5,8.4-16.6,8.6
				C2478,638.6,2477.4,638.8,2476.9,638.7z"/>
		</g>
	</g>
</g>
</svg>
